# Blender v2.78 (sub 0) OBJ File: 'arwing.blend'
# www.blender.org
mtllib arwing.mtl
o Default
v -0.493000 5.960599 1.468015
v -0.325132 5.315220 0.778073
v -0.274324 4.989343 0.183347
v -0.430000 4.979365 -0.641605
v -0.590283 4.989387 0.183443
v -0.600067 5.315510 0.778718
v -0.257000 4.920365 0.365395
v -0.438000 4.920365 0.901395
v -0.436000 4.723365 0.443395
v -0.615000 4.920365 0.365395
v 0.375925 5.289526 0.760665
v 0.009000 4.995365 -0.721605
v -0.001350 5.122866 -1.446604
v -0.431000 4.920365 -0.616605
v -0.583000 4.988365 0.169395
v -0.960000 4.942365 0.749395
v -0.583000 5.340365 0.783396
v -0.583000 4.942365 0.749395
v -0.740000 5.222365 1.119395
v -0.910000 4.914365 0.777395
v -1.074000 4.858365 1.386395
v -0.964000 5.050365 1.407395
v -1.198000 4.773365 1.501395
v -1.114000 5.006365 1.721395
v -1.580000 5.060365 2.583395
v -0.968000 4.977365 1.725395
v -0.540000 5.255365 0.838395
v -0.620000 5.200365 0.668395
v -0.543000 5.096365 1.296396
v -0.400000 5.170865 1.003395
v -0.740000 4.976365 1.607395
v 0.533000 5.960599 1.468015
v 0.470000 4.979365 -0.641605
v 0.314324 4.989343 0.183347
v 0.365132 5.315220 0.778073
v 0.640067 5.315510 0.778718
v 0.630283 4.989387 0.183443
v 0.297000 4.920365 0.365395
v 0.476000 4.723365 0.443395
v 0.478000 4.920365 0.901395
v 0.655000 4.920365 0.365395
v 0.471000 4.920365 -0.616605
v 0.623000 4.988365 0.169395
v 0.623000 5.340365 0.783396
v 1.000000 4.942365 0.749395
v 0.623000 4.942365 0.749395
v 0.780000 5.222365 1.119395
v 1.004000 5.050365 1.407395
v 1.114000 4.858365 1.386395
v 0.950000 4.914365 0.777395
v 1.154000 5.006365 1.721395
v 1.238000 4.773365 1.501395
v 1.620000 5.060365 2.583395
v 1.008000 4.977365 1.725395
v 0.660000 5.200365 0.668395
v 0.580000 5.255365 0.838395
v 0.583000 5.096365 1.296396
v 0.440000 5.170865 1.003395
v 0.780000 4.976365 1.607395
v 0.022813 5.418406 0.443778
v 0.014545 5.409325 0.451824
v 0.006266 5.418411 0.443758
v -0.001928 5.423734 0.443085
v 0.014285 5.441540 0.445951
v 0.030518 5.423723 0.443045
v -0.063791 5.427092 0.513759
v 0.014555 5.385853 0.513759
v 0.014280 5.480953 0.513759
v 0.092626 5.427092 0.513759
v 0.014280 5.506748 0.513759
v 0.092626 5.511063 0.547237
v -0.063791 5.511063 0.547237
v -0.010280 5.548733 0.543763
v 0.043231 5.548733 0.543763
v 0.092626 5.511063 0.586753
v 0.092626 5.427092 0.586753
v 0.014555 5.385853 0.586753
v -0.063791 5.427092 0.586753
v -0.063791 5.511063 0.586753
v -0.042922 5.555733 0.586753
v 0.075873 5.555733 0.586753
v -0.085590 5.550261 0.547237
v -0.058852 5.599500 0.558763
v -0.085590 5.550261 0.586753
v -0.053077 5.575901 0.586753
v 0.093723 5.597854 0.558763
v 0.115590 5.549407 0.547237
v 0.087949 5.574254 0.586753
v 0.115590 5.549407 0.586753
v -0.028111 5.523597 0.622427
v 0.059541 5.523597 0.622427
v -0.038655 5.504565 0.622427
v -0.038655 5.442267 0.622427
v 0.014534 5.414270 0.622427
v 0.067489 5.442242 0.622427
v 0.067489 5.505725 0.622427
v -0.047885 5.271574 0.595640
v -0.069426 5.374754 0.613756
v -0.069426 5.374754 0.536699
v -0.047885 5.271574 0.554815
v 0.097162 5.374754 0.613756
v 0.075622 5.271574 0.595640
v 0.075622 5.271574 0.554815
v 0.097162 5.374754 0.536699
v 0.076847 5.390670 0.555870
v 0.076847 5.390670 0.594586
v -0.049110 5.390670 0.594586
v -0.049110 5.390670 0.555870
v 0.013868 5.386828 0.518003
v 0.013868 5.245230 0.547954
v 0.013868 5.245230 0.595640
v 0.013868 5.386828 0.625592
v 0.013868 5.402744 0.594586
v 0.013868 5.402744 0.555870
v -0.127633 5.318552 0.595467
v -0.064733 5.586129 0.765415
v 0.083252 5.586129 0.765415
v 0.153029 5.318552 0.595467
v -0.046308 5.258782 0.208214
v 0.064778 5.258782 0.208214
v 0.007084 4.996902 -0.713865
v -0.357925 5.289526 0.760665
v 0.014682 5.190466 1.209718
v 0.375675 5.289698 0.761259
v 0.019350 5.535365 1.608396
v 0.106941 5.718490 0.742229
v -0.088941 5.718490 0.742229
v 0.190802 5.411222 0.530147
v -0.164522 5.411222 0.530147
v 0.087629 5.363175 0.138835
v -0.069629 5.363175 0.138835
v 0.106941 5.718490 0.742229
v 0.087629 5.363175 0.138835
v -0.069629 5.363175 0.138835
v -0.088941 5.718490 0.742229
v 0.190802 5.411222 0.530147
v -0.164522 5.411222 0.530147
vt 0.0000 0.0000
vt 1.0000 0.0000
vt 1.0000 1.0000
vt 0.0000 1.0000
vt 0.0000 0.0000
vt 1.0000 0.0000
vt 1.0000 1.0000
vt 0.0000 1.0000
vt 0.0000 0.0000
vt 1.0000 0.0000
vt 1.0000 1.0000
vt 0.0000 1.0000
vt 0.0000 0.0000
vt 1.0000 1.0000
vt 0.0000 0.0000
vt 1.0000 0.0000
vt 1.0000 1.0000
vt 0.0000 0.0000
vt 1.0000 0.0000
vt 1.0000 1.0000
vt 0.0000 0.0000
vt 1.0000 1.0000
vt 0.0000 0.0000
vt 1.0000 0.0000
vt 1.0000 1.0000
vt 0.0000 0.0000
vt 1.0000 1.0000
vt 1.0000 1.0000
vt 0.0000 0.0000
vt 1.0000 0.0000
vt 0.0000 1.0000
vt 0.0000 0.0000
vt 1.0000 0.0000
vt 1.0000 1.0000
vt 0.0000 0.0000
vt 1.0000 0.0000
vt 1.0000 1.0000
vt 0.0000 0.0000
vt 1.0000 0.0000
vt 0.0000 0.0000
vt 1.0000 0.0000
vt 1.0000 1.0000
vt 0.0000 1.0000
vt 0.0000 0.0000
vt 1.0000 0.0000
vt 1.0000 1.0000
vt 0.0000 0.0000
vt 1.0000 0.0000
vt 0.0000 0.0000
vt 1.0000 1.0000
vt 1.0000 0.0000
vt 1.0000 1.0000
vt 0.0000 1.0000
vt 0.0000 0.0000
vt 1.0000 0.0000
vt 1.0000 1.0000
vt 0.0000 1.0000
vt 0.0000 0.0000
vt 1.0000 0.0000
vt 0.0000 1.0000
vt 1.0000 0.0000
vt 1.0000 1.0000
vt 0.0000 0.0000
vt 0.0000 1.0000
vt 0.0000 0.0000
vt 1.0000 0.0000
vt 1.0000 1.0000
vt 0.0000 1.0000
vt 0.0000 0.0000
vt 0.0000 0.0000
vt 0.0000 0.0000
vt 1.0000 0.0000
vt 1.0000 1.0000
vt 0.0000 1.0000
vt 0.0000 0.0000
vt 1.0000 0.0000
vt 1.0000 1.0000
vt 0.0000 1.0000
vt 0.0000 0.0000
vt 1.0000 0.0000
vt 1.0000 1.0000
vt 0.0000 1.0000
vt 0.0000 0.0000
vt 1.0000 1.0000
vt 0.0000 0.0000
vt 1.0000 0.0000
vt 1.0000 1.0000
vt 0.0000 0.0000
vt 1.0000 0.0000
vt 1.0000 1.0000
vt 0.0000 0.0000
vt 0.0000 0.0000
vt 1.0000 0.0000
vt 1.0000 0.0000
vt 0.0000 0.0000
vt 1.0000 1.0000
vt 0.0000 1.0000
vt 0.0000 0.0000
vt 1.0000 0.0000
vt 1.0000 1.0000
vt 0.0000 0.0000
vt 1.0000 1.0000
vt 1.0000 0.0000
vt 0.0000 0.0000
vt 1.0000 1.0000
vt 0.0000 0.0000
vt 1.0000 0.0000
vt 1.0000 1.0000
vt 0.0000 1.0000
vt 0.0000 0.0000
vt 1.0000 1.0000
vt 0.0000 1.0000
vt 0.0000 0.0000
vt 1.0000 0.0000
vt 1.0000 1.0000
vt 0.0000 0.0000
vt 1.0000 0.0000
vt 1.0000 0.0000
vt 1.0000 1.0000
vt 0.0000 1.0000
vt 0.0000 0.0000
vt 1.0000 0.0000
vt 1.0000 1.0000
vt 0.0000 1.0000
vt 0.0000 0.0000
vt 1.0000 0.0000
vt 1.0000 1.0000
vt 0.0000 1.0000
vt 1.0000 1.0000
vt 0.0000 1.0000
vt 0.0000 0.0000
vt 1.0000 1.0000
vt 1.0000 0.0000
vt 0.0000 0.0000
vt 1.0000 0.0000
vt 1.0000 1.0000
vt 0.0000 1.0000
vt 0.0000 0.0000
vt 0.0000 0.0000
vt 1.0000 0.0000
vt 1.0000 1.0000
vt 0.0000 0.0000
vt 1.0000 0.0000
vt 1.0000 1.0000
vt 0.0000 0.0000
vt 1.0000 0.0000
vt 1.0000 1.0000
vt 0.0000 0.0000
vt 1.0000 0.0000
vt 1.0000 1.0000
vt 0.0000 1.0000
vt 0.0000 0.0000
vt 1.0000 1.0000
vt 0.0000 1.0000
vt 0.0000 0.0000
vt 1.0000 1.0000
vt 0.0000 1.0000
vt 0.0000 0.0000
vt 1.0000 0.0000
vt 1.0000 1.0000
vt 0.0000 1.0000
vt 1.0000 1.0000
vt 1.0000 1.0000
vt 1.0000 0.0000
vt 1.0000 1.0000
vt 1.0000 0.0000
vt 1.0000 1.0000
vt 0.0000 0.0000
vt 1.0000 0.0000
vt 0.0000 0.0000
vt 1.0000 0.0000
vt 1.0000 1.0000
vt 0.0000 0.0000
vt 1.0000 0.0000
vt 1.0000 1.0000
vt 1.0000 0.0000
vt 1.0000 1.0000
vt 1.0000 0.0000
vt 1.0000 1.0000
vt 1.0000 0.0000
vt 1.0000 1.0000
vt 0.0000 1.0000
vt 0.0000 0.0000
vt 1.0000 0.0000
vt 1.0000 1.0000
vt 0.0000 1.0000
vt 1.0000 1.0000
vt 0.0000 1.0000
vt 1.0000 0.0000
vt 1.0000 1.0000
vt 0.0000 1.0000
vt 0.0000 0.0000
vt 1.0000 1.0000
vt 0.0000 1.0000
vt 0.0000 0.0000
vt 1.0000 1.0000
vt 0.0000 1.0000
vt 0.0000 0.0000
vt 1.0000 0.0000
vt 1.0000 1.0000
vt 0.0000 1.0000
vt 0.0000 0.0000
vt 1.0000 0.0000
vt 1.0000 1.0000
vt 0.0000 1.0000
vt 0.0000 0.0000
vt 1.0000 1.0000
vt 0.0000 1.0000
vt 0.0000 0.0000
vt 1.0000 0.0000
vt 1.0000 1.0000
vt 0.0000 1.0000
vt 0.0000 0.0000
vt 1.0000 0.0000
vt 1.0000 1.0000
vt 0.0000 1.0000
vt 1.0000 1.0000
vt 0.0000 1.0000
vt 1.0000 1.0000
vt 0.0000 1.0000
vt 0.0000 0.0000
vt 1.0000 1.0000
vt 0.0000 1.0000
vt 0.0000 0.0000
vt 1.0000 1.0000
vt 0.0000 1.0000
vt 0.0000 0.0000
vt 1.0000 1.0000
vt 0.0000 1.0000
vt 1.0000 1.0000
vt 0.0000 1.0000
vt 0.0000 0.0000
vt 1.0000 0.0000
vt 0.0000 0.0000
vt 0.0000 0.0000
vt 1.0000 0.0000
vt 0.0000 0.0000
vt 1.0000 0.0000
vt 1.0000 1.0000
vt 0.0000 1.0000
vt 0.0000 0.0000
vt 1.0000 0.0000
vt 1.0000 1.0000
vt 0.0000 1.0000
vt 1.0000 0.0000
vt 1.0000 1.0000
vt 0.0000 1.0000
vt 0.0000 0.0000
vt 1.0000 1.0000
vt 0.0000 1.0000
vt 1.0000 0.0000
vt 1.0000 1.0000
vt 0.0000 0.0000
vt 0.0000 1.0000
vt 1.0000 0.0000
vt 1.0000 1.0000
vt 0.0000 1.0000
vt 0.0000 0.0000
vt 1.0000 1.0000
vt 0.0000 1.0000
vt 0.0000 0.0000
vt 1.0000 0.0000
vt 1.0000 1.0000
vt 0.0000 1.0000
vt 0.0000 0.0000
vt 1.0000 0.0000
vt 1.0000 1.0000
vt 0.0000 1.0000
vt 0.0000 0.0000
vt 1.0000 0.0000
vt 1.0000 1.0000
vt 0.0000 1.0000
vt 0.0000 0.0000
vt 1.0000 0.0000
vt 1.0000 1.0000
vt 0.0000 1.0000
vt 0.0000 0.0000
vt 1.0000 0.0000
vt 1.0000 1.0000
vt 0.0000 0.0000
vt 1.0000 0.0000
vt 0.0000 1.0000
vt 0.0000 0.0000
vt 1.0000 1.0000
vt 1.0000 0.0000
vt 0.0000 1.0000
vt 0.0000 0.0000
vt 1.0000 0.0000
vt 1.0000 1.0000
vt 0.0000 1.0000
vt 0.0000 0.0000
vt 1.0000 0.0000
vt 1.0000 1.0000
vt 0.0000 1.0000
vt 0.0000 0.0000
vt 1.0000 1.0000
vt 0.0000 1.0000
vt 0.5000 1.0000
vt 0.9755 0.6545
vt 0.7939 0.0955
vt 0.2061 0.0955
vt 0.0245 0.6545
vt 0.0000 0.0000
vt 1.0000 0.0000
vt 1.0000 1.0000
vt 0.0000 0.0000
vt 1.0000 1.0000
vt 1.0000 0.0000
vt 1.0000 1.0000
vt 0.0000 0.0000
vt 1.0000 0.0000
vt 1.0000 1.0000
vt 1.0000 0.0000
vt 1.0000 1.0000
vt 0.0000 0.0000
vt 1.0000 0.0000
vt 0.0000 0.0000
vt 1.0000 0.0000
vt 1.0000 1.0000
vt 0.0000 0.0000
vt 1.0000 1.0000
vt 0.0000 0.0000
vt 1.0000 0.0000
vt 0.0000 0.0000
vt 0.0000 0.0000
vt 1.0000 1.0000
vt 0.0000 1.0000
vt 1.0000 0.0000
vt 0.0000 1.0000
vt 0.0000 1.0000
vt 1.0000 1.0000
vt 1.0000 0.0000
vt 1.0000 1.0000
vt 1.0000 1.0000
vt 0.0000 1.0000
vt 1.0000 0.0000
vt 1.0000 1.0000
vt 0.0000 1.0000
vt 0.0000 0.0000
vt 1.0000 0.0000
vt 1.0000 1.0000
vt 0.0000 1.0000
vt 0.0000 0.0000
vt 1.0000 0.0000
vt 1.0000 1.0000
vt 0.0000 0.0000
vt 1.0000 0.0000
vt 1.0000 1.0000
vn 0.8984 0.4078 -0.1628
vn 0.8985 0.4078 -0.1628
vn -0.9240 0.3354 -0.1836
vn 0.0005 -0.8100 0.5865
vn 0.0000 -0.9672 0.2539
vn 0.0008 -0.7302 0.6832
vn 0.7516 -0.6562 0.0675
vn 0.7637 -0.5918 0.2579
vn -0.7507 -0.6579 0.0611
vn -0.7638 -0.5941 0.2522
vn -0.0001 -0.9999 0.0121
vn 0.6411 -0.7674 -0.0068
vn 0.6411 -0.7675 -0.0068
vn 0.8440 -0.5260 -0.1046
vn -0.7069 -0.6948 -0.1325
vn 0.7090 -0.6939 -0.1256
vn 0.0000 1.0000 0.0000
vn -0.6568 0.6542 -0.3750
vn 0.0000 -0.0851 0.9964
vn 0.0000 -0.9969 -0.0791
vn 1.0000 0.0000 0.0000
vn -0.6793 0.6804 -0.2751
vn -0.7566 0.5636 -0.3315
vn -0.7138 0.5528 -0.4300
vn -0.6719 0.6220 -0.4022
vn 0.1671 0.9782 0.1233
vn 0.1935 0.9801 0.0432
vn -0.6044 0.7177 -0.3459
vn 0.0767 0.9097 0.4081
vn 0.2570 0.8992 0.3540
vn 0.2570 0.8992 0.3541
vn 0.0169 0.9437 0.3303
vn 0.0168 0.9437 0.3303
vn 0.3948 -0.8439 0.3632
vn 0.4308 -0.8976 0.0930
vn 0.4133 -0.8991 -0.1445
vn 0.4133 -0.8991 -0.1446
vn 0.4810 -0.8341 -0.2700
vn 0.4810 -0.8341 -0.2701
vn 0.5499 -0.7194 -0.4245
vn 0.5499 -0.7194 -0.4244
vn 0.7943 0.3592 -0.4900
vn -0.8984 0.4078 -0.1628
vn -0.8985 0.4078 -0.1628
vn 0.9240 0.3354 -0.1836
vn -0.0005 -0.8100 0.5865
vn -0.0008 -0.7302 0.6832
vn -0.7516 -0.6562 0.0675
vn -0.7637 -0.5918 0.2579
vn 0.7507 -0.6579 0.0611
vn 0.7638 -0.5941 0.2522
vn 0.0001 -0.9999 0.0121
vn 0.7069 -0.6948 -0.1325
vn -0.7090 -0.6939 -0.1256
vn 0.6568 0.6542 -0.3750
vn -1.0000 0.0000 0.0000
vn 0.6793 0.6804 -0.2751
vn 0.7566 0.5636 -0.3315
vn 0.7138 0.5528 -0.4300
vn 0.6719 0.6220 -0.4022
vn -0.1671 0.9782 0.1233
vn -0.1935 0.9801 0.0432
vn 0.6044 0.7177 -0.3459
vn -0.0767 0.9097 0.4081
vn -0.2570 0.8992 0.3541
vn -0.2570 0.8992 0.3540
vn -0.0169 0.9437 0.3303
vn -0.0168 0.9437 0.3303
vn -0.3948 -0.8439 0.3632
vn -0.4308 -0.8976 0.0930
vn -0.4133 -0.8991 -0.1445
vn -0.4133 -0.8991 -0.1446
vn -0.4810 -0.8341 -0.2701
vn -0.4810 -0.8341 -0.2700
vn -0.5499 -0.7194 -0.4245
vn -0.5499 -0.7194 -0.4244
vn -0.7943 0.3592 -0.4900
vn 0.2341 -0.7928 -0.5627
vn 0.0018 -0.8574 -0.5146
vn -0.2306 -0.7882 -0.5706
vn -0.0011 0.1599 -0.9871
vn -0.3143 -0.9440 -0.1002
vn -0.4590 -0.8720 -0.1703
vn -0.4025 0.5834 -0.7054
vn -0.5123 0.7425 -0.4316
vn -0.2854 0.7870 -0.5470
vn 0.4610 -0.8727 -0.1610
vn 0.3156 -0.9442 -0.0939
vn 0.2649 0.9109 -0.3163
vn 0.4991 0.7260 -0.4730
vn 0.0005 0.9923 -0.1237
vn -0.2705 0.9169 -0.2935
vn 0.2648 0.9109 -0.3163
vn -0.0002 -0.9989 0.0472
vn -0.3143 -0.9440 -0.1003
vn -0.1270 0.1841 -0.9747
vn -0.0509 0.3624 -0.9306
vn 0.1359 0.1192 -0.9835
vn -0.0000 0.0000 -1.0000
vn -0.2522 0.3039 -0.9187
vn -0.2826 0.4097 -0.8673
vn -0.1719 0.3860 -0.9063
vn 0.1383 0.3249 -0.9356
vn 0.9638 -0.2665 -0.0000
vn 0.9608 -0.1845 0.2069
vn 0.9533 0.0000 0.3021
vn 0.4452 -0.8429 0.3021
vn -0.4440 -0.8436 0.3021
vn -0.4440 -0.8435 0.3021
vn -0.9533 0.0000 0.3021
vn -0.9630 -0.1739 0.2061
vn -0.9680 -0.2511 -0.0000
vn 0.0000 0.9870 -0.1607
vn -0.1595 0.1363 -0.9777
vn -0.1594 0.1363 -0.9777
vn -0.9680 -0.2510 -0.0000
vn -0.8739 -0.4860 0.0000
vn 0.0000 0.0000 1.0000
vn 0.7642 0.3848 0.5176
vn -0.8788 0.4772 -0.0000
vn 0.0482 -0.0289 -0.9984
vn -0.6918 0.5795 0.4309
vn -0.6917 0.5795 0.4309
vn 0.9638 -0.2666 0.0000
vn 0.8579 -0.5138 0.0000
vn 0.8603 0.2882 0.4205
vn 0.8603 0.2883 0.4205
vn 0.0000 0.7430 0.6693
vn -0.7222 0.3374 0.6038
vn -0.7820 0.1714 0.5992
vn -0.9004 0.1196 0.4183
vn -0.8175 -0.0000 0.5760
vn -0.3808 -0.7234 0.5760
vn 0.3818 -0.7228 0.5760
vn 0.9079 0.1007 0.4068
vn 0.7986 0.1446 0.5843
vn 0.8175 -0.0000 0.5760
vn 0.7986 0.1445 0.5843
vn 0.7626 0.2860 0.5802
vn -0.9789 -0.2044 0.0000
vn 0.9789 -0.2044 0.0000
vn 0.4248 0.8740 0.2360
vn 0.4143 0.8879 -0.1999
vn 0.3404 0.9309 -0.1327
vn 0.3481 0.9242 0.1568
vn -0.6167 0.7872 0.0000
vn -0.4287 0.8642 0.2633
vn -0.3511 0.9198 0.1749
vn -0.4141 0.9102 0.0000
vn -0.1856 -0.2074 -0.9605
vn 0.0005 -0.2090 -0.9779
vn 0.0004 -0.2090 -0.9779
vn -0.1855 -0.2074 -0.9605
vn 0.1863 -0.2033 -0.9612
vn -0.0805 -0.1887 0.9787
vn 0.0037 -0.1981 0.9802
vn 0.0038 -0.1981 0.9802
vn -0.0805 -0.1886 0.9787
vn 0.0879 -0.2061 0.9746
vn -0.0014 0.8762 0.4820
vn -0.0008 0.9686 0.2487
vn -0.1812 0.9449 -0.2725
vn 0.0036 0.9714 -0.2374
vn 0.0070 0.8874 -0.4610
vn -0.1603 0.8362 -0.5244
vn -0.3414 0.9214 -0.1855
vn 0.3924 -0.9198 0.0000
vn -0.3924 -0.9198 0.0000
vn 0.0000 0.5361 -0.8441
vn 0.0000 0.9883 -0.1525
vn -0.8162 -0.5709 -0.0887
vn -0.6177 -0.7864 0.0032
vn -0.6702 -0.7227 0.1688
vn 0.5694 -0.7699 0.2880
vn 0.3682 -0.9252 0.0917
vn 0.7119 -0.5352 0.4547
vn -0.5633 -0.7709 0.2974
vn -0.7057 -0.5317 0.4683
vn 0.0000 0.9784 0.2068
vn 0.7553 0.6357 -0.1594
vn 0.7689 0.5490 -0.3276
vn 0.8451 0.5257 -0.0975
vn -0.8448 0.5254 -0.1012
vn -0.7532 0.5676 -0.3323
vn -0.7450 0.6488 -0.1553
vn 0.6512 0.7276 -0.2157
vn -0.6296 0.7499 -0.2031
vn -0.2781 0.9479 -0.1556
vn 0.2846 0.9453 -0.1593
vn 0.0043 0.9855 -0.1694
vn 0.4585 0.8647 -0.2053
vn 0.7553 0.6356 -0.1594
vn -0.7450 0.6487 -0.1553
vn -0.4415 0.8757 -0.1954
vn 0.9700 0.2092 -0.1239
vn 0.9060 0.0658 -0.4182
vn 0.9059 0.0658 -0.4183
vn 0.0000 -0.1725 -0.9850
vn -0.8838 0.0773 -0.4615
vn -0.8648 0.4724 0.1700
vn -0.8649 0.4724 0.1700
vn 0.0000 0.5535 0.8328
vn 0.9261 0.3293 0.1842
vn -0.8234 0.5255 0.2141
vn 0.8271 0.5270 0.1951
vn 0.0000 0.8617 -0.5074
vn 0.8599 0.4274 -0.2792
vn -0.8795 0.3972 -0.2621
usemtl Material.002
s 1
f 1/1/1 2/2/2 3/3/1 4/4/1
f 4/5/3 5/6/3 6/7/3 1/8/3
f 2/9/4 6/10/4 5/11/5 3/12/5
f 6/13/4 2/2/4 1/14/6
f 7/15/7 8/16/8 9/17/7
f 10/18/9 9/19/9 8/20/10
f 3/21/5 5/6/5 4/22/11
f 11/23/12 12/24/13 13/25/14
f 14/26/15 9/19/9 10/27/9
f 7/15/7 9/19/7 14/28/16
f 8/29/17 7/30/17 14/28/17 10/31/17
f 15/32/18 16/33/18 17/34/18
f 16/35/19 18/36/19 17/34/19
f 15/32/20 18/36/20 16/37/20
f 18/38/21 15/39/21 17/34/21
f 19/40/22 20/41/22 21/42/23 22/43/23
f 21/44/23 23/45/24 24/46/24 22/43/23
f 23/47/24 25/48/25 24/46/24
f 24/49/26 25/48/27 26/50/26
f 19/40/22 27/51/28 28/52/28 20/53/22
f 29/54/29 30/55/30 27/56/31 19/57/29
f 22/58/32 24/59/26 26/50/26 31/60/33
f 22/58/32 31/61/33 29/62/29 19/57/29
f 25/63/34 23/45/35 26/50/35
f 21/44/36 31/61/37 26/50/35 23/64/35
f 31/65/37 21/66/36 20/67/38 29/68/39
f 28/69/40 30/55/41 29/62/39 20/53/38
f 27/70/42 30/55/42 28/52/42
f 32/71/43 33/72/43 34/73/43 35/74/44
f 33/75/45 32/76/45 36/77/45 37/78/45
f 35/79/46 34/80/5 37/81/5 36/82/46
f 36/83/46 32/76/47 35/84/46
f 38/85/48 39/86/48 40/87/49
f 41/88/50 40/89/51 39/90/50
f 34/91/5 33/72/52 37/81/5
f 42/92/53 41/93/50 39/90/50
f 38/85/48 42/94/54 39/90/48
f 40/95/17 41/93/17 42/96/17 38/97/17
f 43/98/55 44/99/55 45/100/55
f 45/101/19 44/99/19 46/102/19
f 43/98/20 45/103/20 46/102/20
f 46/104/56 44/99/56 43/105/56
f 47/106/57 48/107/58 49/108/58 50/109/57
f 49/110/58 48/107/58 51/111/59 52/112/59
f 52/113/59 51/114/59 53/115/60
f 51/116/61 54/117/61 53/115/62
f 47/106/57 50/118/57 55/119/63 56/120/63
f 57/121/64 47/122/64 56/123/65 58/124/66
f 48/125/67 59/126/68 54/127/61 51/128/61
f 48/125/67 47/122/64 57/129/64 59/130/68
f 53/131/69 54/117/70 52/132/70
f 49/110/71 52/133/70 54/127/70 59/130/72
f 59/134/72 57/135/73 50/136/74 49/137/71
f 55/138/75 50/118/74 57/129/73 58/124/76
f 56/139/77 55/140/77 58/141/77
f 60/142/78 61/143/79 62/144/80
f 63/145/81 64/146/81 65/147/81
f 66/148/82 62/149/80 61/150/79 67/151/83
f 68/152/84 64/146/85 63/153/85 66/154/86
f 67/155/87 61/143/79 60/156/78 69/157/88
f 69/158/89 65/159/90 64/160/90 68/161/90
f 60/142/91 62/149/91 66/162/92 69/157/93
f 63/145/94 65/159/94 69/163/88 66/154/95
f 68/152/96 70/164/97 71/165/98 69/157/99
f 66/148/84 72/166/100 70/167/97 68/161/101
f 72/168/100 73/169/102 70/167/97
f 70/170/97 74/171/103 71/165/98
f 70/170/97 73/169/102 74/172/103
f 71/173/104 75/174/105 76/175/106 69/157/21
f 69/158/88 76/176/107 77/177/107 67/151/87
f 67/155/83 77/178/108 78/179/109 66/154/82
f 66/148/56 78/180/110 79/181/111 72/182/112
f 73/183/113 80/184/113 81/185/113 74/186/113
f 73/183/102 72/166/100 82/187/114 83/188/115
f 72/168/116 79/189/116 84/190/117 82/191/117
f 79/192/118 80/184/118 85/193/118 84/194/118
f 80/195/119 73/169/119 83/196/119 85/197/119
f 82/198/120 84/199/120 85/193/120 83/188/120
f 71/173/98 74/171/103 86/200/121 87/201/121
f 74/202/122 81/203/122 88/204/123 86/205/122
f 81/206/118 75/174/118 89/207/118 88/208/118
f 75/209/124 71/210/124 87/211/125 89/212/125
f 86/213/126 88/214/126 89/207/126 87/201/127
f 81/206/128 80/184/128 90/215/128 91/216/128
f 80/195/129 79/189/130 92/217/130 90/218/129
f 79/192/131 78/180/110 93/219/132 92/220/130
f 78/221/109 77/178/108 94/222/133 93/223/133
f 77/224/107 76/176/107 95/225/134 94/226/134
f 76/227/106 75/174/135 96/228/136 95/229/137
f 75/209/138 81/203/139 91/230/139 96/231/136
f 95/232/118 96/233/118 92/217/118 93/223/118
f 92/234/118 96/233/118 91/230/118 90/218/118
f 94/235/118 95/236/118 93/219/118
f 97/237/140 98/238/140 99/239/140 100/240/140
f 101/241/141 102/242/141 103/243/141 104/244/141
f 101/241/142 104/245/143 105/246/144 106/247/145
f 99/248/146 98/238/147 107/249/148 108/250/149
f 99/248/150 109/251/151 110/252/152 100/240/153
f 109/253/151 104/245/154 103/243/154 110/254/152
f 97/237/155 111/255/156 112/256/157 98/257/158
f 111/258/156 102/242/159 101/259/159 112/260/157
f 98/261/147 112/262/160 113/263/161 107/264/148
f 112/265/160 101/266/142 106/267/145 113/268/161
f 108/269/162 114/270/163 109/271/164 99/272/165
f 114/273/163 105/274/144 104/275/143 109/276/164
f 107/277/148 113/278/161 114/279/163 108/250/166
f 113/280/161 106/281/145 105/246/144 114/282/163
f 103/283/167 102/242/167 111/284/167 110/254/167
f 97/237/168 100/285/168 110/252/168 111/286/168
f 115/287/169 116/288/169 117/289/169 118/290/169
f 119/291/170 115/292/170 118/293/170 120/294/170
f 13/295/171 12/24/171 121/296/172 122/297/173
f 123/298/174 121/299/175 12/300/13 11/301/12 124/302/174
f 125/303/176 123/304/174 124/305/174
f 121/306/172 123/304/177 122/307/173
f 125/303/178 122/308/173 123/309/177
f 126/310/179 127/311/179 125/312/179
f 11/23/180 128/313/181 126/314/182
f 127/315/183 129/316/184 122/307/185
f 128/317/181 11/318/180 130/319/186
f 122/320/185 129/316/184 131/321/187
f 131/322/188 130/323/189 13/25/190
f 130/324/191 11/318/192 13/25/189
f 13/295/188 122/308/193 131/321/194
f 129/325/195 127/311/196 116/326/197 115/327/195
f 127/315/198 126/328/198 117/289/198 116/329/198
f 126/310/199 128/313/199 118/293/199 117/330/199
f 128/317/200 130/323/200 120/331/200 118/290/201
f 130/324/202 131/332/202 119/333/202 120/294/202
f 131/322/203 129/316/195 115/334/195 119/335/203
f 122/320/185 125/336/204 127/337/183
f 126/310/182 125/336/205 124/305/205 11/338/180
f 132/339/206 133/340/206 134/341/206 135/342/206
f 133/343/207 132/344/207 136/345/207
f 135/346/208 134/347/208 137/348/208
